<?xml version="1.0" standalone="no"?>
<!DOCTYPE svg PUBLIC "-//W3C//DTD SVG 20010904//EN"
 "http://www.w3.org/TR/2001/REC-SVG-20010904/DTD/svg10.dtd">
<svg version="1.0" xmlns="http://www.w3.org/2000/svg"
 width="500.000000pt" height="500.000000pt" viewBox="0 0 500.000000 500.000000"
 preserveAspectRatio="xMidYMid meet">

<g transform="translate(0.000000,500.000000) scale(0.100000,-0.100000)"
fill="#000000" stroke="none">
<path d="M2325 4928 c-16 -5 -43 -9 -59 -9 -16 0 -39 -7 -52 -15 -13 -9 -28
-13 -34 -9 -6 4 -20 -1 -30 -10 -10 -9 -23 -14 -28 -11 -5 3 -15 -1 -22 -9 -6
-7 -19 -11 -27 -8 -12 5 -15 2 -10 -10 4 -12 2 -14 -10 -10 -9 4 -14 2 -10 -3
3 -6 2 -16 -4 -24 -6 -10 -9 -11 -9 -2 0 6 -5 12 -11 12 -6 0 -8 -7 -5 -16 3
-8 2 -12 -3 -9 -5 3 -12 1 -16 -5 -4 -6 -11 -7 -17 -4 -7 5 -8 2 -3 -6 6 -10
3 -12 -13 -8 -23 6 -30 -6 -11 -18 8 -5 4 -12 -10 -23 -12 -10 -23 -25 -25
-34 -1 -10 -5 -17 -9 -17 -4 0 -14 0 -22 0 -8 0 -15 4 -15 10 0 5 6 7 14 4 20
-7 42 34 27 49 -8 8 -14 8 -22 0 -8 -8 -8 -13 0 -17 16 -10 14 -29 -3 -23 -16
6 -50 -30 -36 -38 6 -4 15 -3 22 1 7 4 8 3 4 -4 -4 -7 -14 -12 -22 -12 -8 0
-14 -5 -14 -12 0 -6 -3 -8 -7 -5 -3 4 -13 -2 -20 -13 -8 -11 -18 -18 -23 -15
-11 7 -31 -19 -33 -43 -1 -13 -6 -18 -16 -14 -10 4 -12 1 -6 -8 5 -8 4 -11 -3
-6 -6 3 -18 -1 -26 -10 -9 -8 -16 -13 -16 -9 0 14 -59 -37 -65 -55 -4 -11 -11
-17 -17 -14 -5 4 -6 9 -2 13 22 16 35 39 24 46 -6 4 -9 1 -8 -7 2 -7 -3 -12
-10 -10 -8 1 -11 -2 -8 -7 4 -5 2 -12 -4 -16 -6 -4 -8 -11 -5 -16 6 -8 -8 -13
-27 -10 -4 0 -5 -8 -3 -19 2 -12 -3 -21 -15 -25 -11 -3 -19 -9 -19 -13 3 -19
-2 -32 -12 -32 -5 0 -7 5 -3 12 5 7 3 8 -5 4 -7 -5 -10 -15 -7 -23 3 -8 1 -11
-4 -8 -6 3 -13 -2 -17 -12 -3 -10 -15 -30 -25 -45 -11 -16 -16 -33 -12 -39 4
-8 3 -9 -4 -5 -12 7 -16 -5 -13 -33 2 -7 -2 -10 -8 -6 -10 6 -16 -8 -12 -29 1
-4 -6 -14 -16 -21 -10 -7 -15 -17 -11 -20 4 -4 0 -14 -8 -22 -9 -9 -12 -23 -8
-35 4 -13 2 -18 -4 -14 -13 8 -26 -29 -16 -45 4 -7 3 -9 -4 -5 -12 7 -50 -104
-127 -369 -25 -88 -80 -259 -121 -380 -82 -244 -104 -341 -104 -461 0 -70 3
-86 24 -117 21 -31 23 -41 15 -69 -39 -131 -49 -296 -23 -411 15 -67 21 -76
81 -136 l64 -64 77 7 c42 3 122 11 177 16 351 33 350 33 359 2 5 -16 141 -683
156 -767 4 -22 15 -76 24 -120 9 -44 21 -105 27 -135 6 -30 15 -73 19 -95 5
-22 11 -51 13 -65 3 -14 12 -61 21 -105 9 -44 21 -105 27 -135 6 -30 15 -73
20 -95 5 -22 15 -74 24 -116 8 -42 17 -84 21 -93 4 -12 0 -16 -15 -16 -12 0
-21 6 -21 14 0 8 -5 18 -11 22 -8 4 -9 0 -4 -15 7 -24 -22 -43 -34 -22 -4 7
-16 9 -27 5 -16 -6 -17 -5 -6 7 6 7 12 20 11 29 0 8 -3 10 -5 4 -3 -7 -14 -10
-24 -7 -19 5 -32 44 -34 104 -1 15 -3 25 -5 23 -6 -5 -30 83 -31 109 0 11 4
15 12 11 7 -5 8 -3 3 6 -4 7 -8 27 -8 44 1 25 -1 27 -7 11 -9 -23 -11 -18 -30
60 -6 28 -15 66 -20 85 -5 19 -14 55 -20 80 -6 25 -10 50 -9 55 2 6 -3 21 -10
34 -7 13 -11 34 -8 47 2 13 0 25 -5 26 -14 5 -15 63 -1 61 7 -2 10 4 6 13 -4
11 -8 12 -13 4 -11 -17 -30 38 -33 92 -1 25 -5 44 -8 42 -10 -6 -30 91 -23
111 5 11 4 16 -3 12 -11 -7 -39 100 -29 110 3 4 -1 17 -10 31 -9 13 -14 32
-11 42 2 9 0 26 -6 36 -17 30 -26 94 -14 101 6 4 7 1 2 -6 -6 -10 -3 -11 13
-2 17 9 23 8 31 -6 9 -16 12 -16 21 -3 7 11 5 19 -8 28 -9 7 -16 19 -14 25 2
7 0 9 -3 5 -4 -4 -17 -3 -29 3 -18 9 -19 8 -6 -3 17 -15 24 -38 12 -38 -4 0
-14 6 -21 12 -11 11 -12 10 -6 -1 6 -10 4 -12 -4 -6 -7 4 -11 16 -8 26 3 11 2
17 -3 14 -4 -3 -13 2 -21 11 -13 16 -57 14 -144 -6 -30 -7 -19 -8 46 -4 64 4
88 2 95 -8 6 -7 20 -53 32 -103 11 -49 32 -137 46 -195 14 -58 34 -144 46
-192 11 -49 29 -125 39 -170 11 -46 38 -164 61 -263 23 -99 49 -216 60 -260
10 -44 29 -126 42 -183 22 -101 24 -103 48 -97 81 19 207 32 236 23 53 -14
224 -196 224 -237 0 -19 232 -13 385 9 546 79 1016 312 1396 690 128 128 241
260 285 336 l25 43 -21 128 c-49 290 -120 414 -285 496 -38 19 -102 45 -142
57 l-72 22 23 36 c37 60 46 99 46 203 0 136 -27 247 -130 529 -122 334 -192
616 -240 965 -38 278 -76 491 -102 579 -60 204 -146 374 -240 481 -61 68 -179
157 -258 194 -64 30 -189 57 -216 47 -8 -3 -37 5 -64 19 -60 30 -213 67 -252
61 -15 -2 -28 0 -28 5 0 12 -197 10 -235 -3z m-315 -152 c0 -2 -8 -10 -17 -17
-16 -13 -17 -12 -4 4 13 16 21 21 21 13z m-100 -46 c0 -5 -2 -10 -4 -10 -3 0
-8 5 -11 10 -3 6 -1 10 4 10 6 0 11 -4 11 -10z m-239 -267 c13 -16 12 -17 -3
-4 -10 7 -18 15 -18 17 0 8 8 3 21 -13z m-66 -51 c-3 -3 -11 0 -18 7 -9 10 -8
11 6 5 10 -3 15 -9 12 -12z m1283 -42 c47 -29 68 -70 87 -173 23 -119 74 -277
117 -358 18 -35 34 -68 36 -72 2 -4 -13 3 -33 17 -53 36 -132 56 -222 56 -100
0 -199 -35 -222 -79 -10 -18 -9 -18 37 -4 66 22 179 42 232 42 64 0 160 -25
190 -49 14 -11 32 -23 41 -26 8 -3 23 -18 32 -33 9 -16 31 -43 48 -62 l31 -33
-7 -140 c-8 -188 -35 -348 -82 -496 -59 -185 -215 -356 -440 -480 -124 -70
-182 -90 -252 -90 -49 0 -71 7 -152 48 -212 108 -384 250 -445 367 -62 119
-133 361 -165 567 l-12 78 48 52 c139 154 257 229 370 236 44 2 56 0 45 -7
-13 -9 -12 -11 6 -11 35 0 164 48 214 80 58 37 155 138 200 207 18 29 35 51
37 50 2 -2 -4 -24 -12 -48 -24 -66 -92 -165 -149 -215 -54 -48 -38 -49 30 -3
131 89 203 209 270 446 21 76 43 141 49 145 17 13 38 9 73 -12z m-498 -387
c-51 -102 -141 -203 -178 -202 -15 0 -35 4 -46 8 -17 6 -16 9 10 26 44 28 140
123 197 192 28 35 52 61 54 59 2 -2 -14 -39 -37 -83z m-276 -105 c-20 -35 -68
-90 -87 -100 -12 -6 3 16 33 50 56 62 67 72 54 50z m1364 -359 c11 -11 28 -45
37 -76 15 -48 16 -66 7 -135 -7 -43 -24 -104 -39 -135 -37 -79 -152 -194 -216
-216 -38 -13 -77 -14 -77 -3 1 14 60 217 68 231 6 11 22 54 36 95 70 208 82
235 119 250 34 13 45 12 65 -11z m-2267 -146 c-6 -21 -20 -78 -32 -128 -11
-49 -35 -153 -54 -230 -18 -77 -42 -175 -52 -218 -19 -84 -34 -101 -44 -52
-23 104 5 265 71 415 97 222 114 259 118 256 2 -2 -1 -21 -7 -43z m439 -7 c0
-8 20 -54 45 -104 56 -112 91 -220 76 -235 -18 -18 -38 8 -21 28 11 13 10 19
-5 35 -9 10 -21 34 -25 52 -8 33 -8 33 -9 5 -1 -16 8 -41 19 -57 18 -26 19
-29 3 -41 -13 -11 -17 -11 -20 -1 -3 6 -9 12 -15 12 -5 0 -16 6 -23 14 -11 10
-11 16 -2 27 8 9 6 8 -7 -1 -18 -14 -19 -13 -13 3 4 10 3 16 -2 13 -5 -3 -13
17 -18 45 -9 42 -8 53 7 71 20 25 37 18 56 -26 7 -17 13 -25 14 -18 0 7 -5 23
-12 35 -18 34 -80 108 -86 102 -3 -3 5 -16 17 -29 l23 -25 -21 -29 c-11 -17
-21 -41 -21 -55 0 -67 62 -141 145 -173 33 -12 43 -22 53 -54 6 -22 12 -44 12
-50 0 -17 -63 -11 -98 10 -50 31 -128 117 -161 180 l-31 57 20 58 c34 100 100
199 100 151z m-444 -388 c-5 -50 -11 -89 -34 -213 -6 -27 -17 -90 -26 -140 -9
-49 -21 -110 -26 -134 -18 -74 -24 -251 -11 -310 6 -30 9 -56 6 -59 -9 -10
-35 21 -61 73 -37 76 -40 148 -14 275 18 88 118 420 151 498 5 13 9 32 9 42 0
11 2 20 5 20 3 0 3 -24 1 -52z m2707 -498 c78 -171 113 -280 123 -372 8 -82
-9 -182 -39 -229 l-21 -34 -7 65 c-4 36 -21 126 -38 200 -33 143 -66 313 -82
419 -5 35 -12 75 -15 90 -13 51 14 6 79 -139z m-982 62 c-5 -2 -8 -9 -5 -15 2
-7 6 -95 7 -197 2 -149 6 -193 20 -226 17 -39 17 -41 -8 -100 -14 -32 -30 -68
-36 -79 -5 -11 -24 -60 -43 -110 -29 -78 -37 -91 -62 -99 -59 -18 -70 -26 -26
-20 23 3 42 3 42 0 0 -4 -9 -41 -21 -84 -13 -48 -22 -114 -24 -177 -1 -55 -3
-102 -4 -105 -2 -10 -63 -28 -113 -35 -35 -5 -48 -12 -48 -24 0 -10 3 -12 8
-5 4 6 26 14 50 18 l42 6 0 -55 c0 -30 -2 -55 -4 -55 -2 0 -12 -3 -22 -7 -13
-5 -16 -3 -12 9 4 8 2 21 -3 29 -6 10 -9 4 -10 -21 -1 -32 -2 -33 -9 -10 -8
24 -8 24 -9 3 -1 -13 -5 -23 -10 -23 -5 0 -16 -3 -25 -6 -13 -5 -16 4 -18 52
l-2 59 -3 -55 c-3 -30 -10 -58 -16 -62 -7 -4 -58 -8 -114 -8 l-103 0 -2 63 -2
62 -3 -58 -4 -58 -32 3 c-32 3 -32 3 -35 66 -3 60 -2 62 22 62 13 0 26 -5 28
-12 3 -8 7 -6 11 4 5 14 -3 18 -41 24 -89 13 -152 58 -152 109 0 17 -4 56 -9
86 -5 30 -12 96 -16 148 l-6 94 38 -6 c21 -3 49 -9 63 -13 16 -4 21 -3 15 3
-5 5 -32 15 -60 22 -27 6 -53 18 -57 24 -4 7 -8 67 -8 133 0 104 3 125 19 146
36 45 45 134 32 297 -7 80 -14 159 -16 174 -5 31 -2 30 50 -8 43 -31 193 -108
242 -124 38 -13 62 -12 155 3 9 1 23 8 31 14 17 15 47 6 47 -14 0 -8 6 -11 16
-7 11 4 12 8 4 13 -9 5 -9 9 -1 14 6 4 11 2 11 -4 0 -7 8 -9 22 -5 16 6 20 4
15 -8 -3 -9 0 -20 7 -26 9 -8 11 -2 8 24 -3 23 0 35 8 35 7 0 10 -7 7 -15 -4
-8 -2 -17 3 -20 6 -4 10 1 10 11 0 11 6 15 19 11 14 -3 18 -1 14 9 -3 8 1 14
8 14 7 0 9 3 6 6 -4 4 -13 1 -22 -6 -9 -7 -18 -10 -22 -6 -3 3 -1 6 5 6 7 0
12 7 12 15 0 14 -3 14 -24 0 -23 -16 -24 -15 -19 4 5 19 33 51 33 37 0 -3 8 1
18 10 9 8 44 35 77 59 l60 44 3 -27 c2 -14 -1 -28 -7 -30z m-221 -106 c0 -2
-7 -7 -16 -10 -8 -3 -12 -2 -9 4 6 10 25 14 25 6z m-1517 -298 c4 -40 9 -84
12 -98 5 -22 3 -21 -9 5 -18 38 -32 165 -19 165 6 0 13 -33 16 -72z m531 -477
c-2 -3 -12 3 -22 13 -16 17 -16 18 5 5 12 -7 20 -15 17 -18z m1169 -6 c-3 -9
-8 -14 -10 -11 -3 3 -2 9 2 15 9 16 15 13 8 -4z m-18 -65 c-4 -12 -9 -19 -12
-17 -3 3 -2 15 2 27 4 12 9 19 12 17 3 -3 2 -15 -2 -27z m-19 -86 c-4 -20 -10
-34 -12 -31 -3 3 -2 21 2 41 3 21 9 35 11 32 3 -3 2 -21 -1 -42z m-598 -284
l-1 -65 -7 60 -7 60 -1 -53 c-2 -50 -3 -53 -24 -46 -37 11 -46 23 -53 67 -3
23 -8 54 -11 69 l-5 27 55 -27 56 -27 -2 -65z m498 58 c-4 -13 -9 -38 -13 -55
-8 -46 -17 -41 -21 12 -3 51 2 65 25 65 11 0 14 -6 9 -22z m114 -223 c0 -8 -4
-15 -10 -15 -5 0 -10 7 -10 15 0 8 5 15 10 15 6 0 10 -7 10 -15z m-38 -28 c28
-9 35 -16 29 -26 -7 -11 -17 -11 -60 4 -28 9 -49 21 -45 26 7 12 30 10 76 -4z
m-19 -43 c23 -4 37 -12 37 -22 0 -11 -8 -13 -32 -8 l-33 6 28 -17 c37 -24 35
-43 -5 -44 l-33 -1 28 -10 c15 -5 27 -16 27 -24 0 -19 -5 -18 -62 8 -55 25
-64 48 -18 48 35 0 39 14 10 32 -11 7 -20 18 -20 25 0 14 17 16 73 7z m-33
-174 c0 -13 -7 -20 -18 -20 -24 0 -32 8 -25 26 8 22 43 17 43 -6z m-16 -46
c18 -17 22 -79 6 -89 -6 -3 -31 -3 -56 1 -45 6 -46 7 -40 38 6 32 38 66 61 66
8 0 21 -7 29 -16z m-84 -120 c-12 -31 -12 -34 -1 -34 5 0 13 9 16 20 9 29 23
25 28 -7 l3 -28 13 33 c17 44 36 28 23 -19 -9 -33 -10 -34 -58 -32 -43 2 -50
-1 -51 -18 -1 -15 5 -19 27 -19 41 0 60 -9 53 -26 -4 -11 -16 -13 -49 -8 -36
5 -44 3 -44 -9 0 -17 -18 -33 -26 -24 -11 10 49 197 62 197 10 0 11 -6 4 -26z
m-685 -382 c-8 -8 -25 10 -25 26 0 13 2 13 14 -4 8 -10 13 -21 11 -22z"/>
<path d="M2275 3730 c3 -5 8 -10 11 -10 2 0 4 5 4 10 0 6 -5 10 -11 10 -5 0
-7 -4 -4 -10z"/>
<path d="M2834 3641 c-30 -8 -94 -47 -94 -57 0 -3 15 5 32 18 42 30 147 37
201 15 43 -19 49 -14 9 7 -36 18 -109 27 -148 17z"/>
<path d="M2003 3597 c-47 -13 -139 -74 -128 -85 4 -4 12 0 18 8 20 27 88 61
140 71 61 11 113 -1 159 -37 l33 -26 -32 30 c-31 30 -88 53 -128 51 -11 -1
-39 -6 -62 -12z"/>
<path d="M2856 3599 c-48 -11 -101 -50 -121 -89 -27 -52 -16 -52 34 -1 27 28
55 51 63 51 7 0 3 -7 -8 -15 -27 -18 -48 -94 -40 -139 4 -20 18 -49 32 -66 23
-26 32 -30 79 -30 50 0 56 3 80 34 21 28 26 46 26 91 0 45 -5 63 -26 91 -32
42 -23 43 36 5 56 -35 84 -86 69 -128 -9 -26 -9 -27 5 -9 8 11 15 23 15 28 0
4 12 8 28 8 25 1 26 1 7 12 -31 17 -31 18 -5 38 l24 18 -26 -5 c-26 -5 -53 17
-30 25 7 2 12 8 12 13 0 4 -7 6 -16 2 -8 -3 -25 3 -37 15 -51 46 -131 67 -201
51z m22 -96 c-3 -31 -34 -44 -44 -19 -9 24 3 46 26 46 17 0 21 -5 18 -27z"/>
<path d="M3020 3604 c0 -10 53 -54 58 -49 3 3 -1 12 -8 20 -16 19 -50 39 -50
29z"/>
<path d="M1993 3556 c-24 -8 -59 -28 -79 -45 -30 -27 -38 -30 -52 -19 -14 12
-14 10 -3 -10 11 -20 10 -27 -4 -42 -11 -13 -13 -19 -4 -22 8 -3 7 -9 -5 -20
-21 -21 -20 -27 2 -21 12 3 22 -4 30 -19 11 -21 11 -20 6 12 -6 42 23 92 75
127 45 30 55 29 37 -5 -15 -28 -21 -74 -18 -123 1 -14 17 -43 35 -64 33 -38
33 -38 90 -31 33 4 55 12 51 17 -3 6 1 21 10 34 18 28 22 125 5 158 -6 14 3 8
25 -15 40 -42 48 -29 14 22 -43 62 -137 91 -215 66z m75 -58 c17 -17 15 -48
-4 -55 -24 -9 -46 24 -33 48 11 22 20 24 37 7z"/>
<path d="M2417 3156 c-5 -15 -6 -31 -3 -34 8 -8 18 25 14 45 -3 13 -6 10 -11
-11z"/>
<path d="M2410 3036 c0 -16 28 -42 36 -33 7 6 -18 47 -28 47 -5 0 -8 -6 -8
-14z"/>
<path d="M2523 3043 c-21 -8 -15 -22 7 -16 11 3 20 9 20 14 0 10 -8 10 -27 2z"/>
<path d="M2718 2840 c-9 -6 -40 -16 -70 -24 -29 -8 -42 -15 -30 -15 31 -1 130
28 137 40 8 12 -15 11 -37 -1z"/>
<path d="M2260 2815 c14 -8 36 -14 50 -14 18 0 12 4 -20 15 -56 17 -62 17 -30
-1z"/>
<path d="M2360 2790 c14 -4 34 -8 45 -9 16 -1 17 1 5 9 -8 5 -28 9 -45 9 -29
-1 -29 -1 -5 -9z"/>
<path d="M2530 2790 c-11 -7 -5 -8 20 -4 43 8 51 14 19 14 -13 0 -31 -5 -39
-10z"/>
<path d="M2500 2691 c-44 -4 -58 -8 -43 -13 28 -7 101 1 109 13 3 5 4 8 2 7
-2 -1 -32 -4 -68 -7z"/>
<path d="M3408 3438 c-58 -82 -99 -151 -94 -162 3 -7 5 -7 5 2 1 7 6 10 13 6
7 -5 8 -3 3 6 -6 10 -4 12 10 6 15 -5 16 -4 5 9 -10 12 -10 15 3 15 19 0 39
-24 29 -35 -4 -5 -1 -5 6 -1 9 5 12 -4 12 -33 0 -51 -16 -88 -55 -127 -29 -30
-95 -71 -95 -60 0 18 25 54 33 49 6 -3 7 -2 4 4 -3 5 1 22 9 37 7 16 13 47 13
70 l-1 41 -8 -46 c-4 -25 -20 -68 -34 -95 -45 -85 -29 -97 51 -37 70 51 93 90
93 157 0 47 -3 57 -26 73 -25 19 -26 20 -11 49 9 16 27 42 40 59 21 25 27 27
40 16 9 -7 20 -31 26 -54 9 -41 9 -41 10 -9 1 39 -24 92 -44 92 -7 0 -24 -15
-37 -32z"/>
<path d="M3361 3230 c0 -8 3 -21 8 -29 7 -11 10 -9 16 8 4 13 4 25 1 28 -3 4
-6 -2 -7 -13 0 -18 -1 -18 -9 1 -6 13 -9 15 -9 5z"/>
<path d="M2805 2487 c-12 -9 -14 -16 -7 -21 6 -3 16 3 22 14 13 24 10 25 -15
7z"/>
<path d="M2767 2473 c-4 -3 -7 -11 -7 -17 0 -6 5 -5 12 2 6 6 9 14 7 17 -3 3
-9 2 -12 -2z"/>
<path d="M2890 2470 c0 -5 5 -10 11 -10 5 0 7 5 4 10 -3 6 -8 10 -11 10 -2 0
-4 -4 -4 -10z"/>
<path d="M2625 2390 c3 -5 8 -10 11 -10 2 0 4 5 4 10 0 6 -5 10 -11 10 -5 0
-7 -4 -4 -10z"/>
<path d="M2702 2383 c-6 -2 -10 -8 -7 -12 2 -4 -9 -7 -25 -6 -17 1 -30 1 -30
0 0 -1 14 -14 31 -31 25 -23 29 -24 21 -8 -10 18 -8 23 7 27 10 2 18 12 18 21
0 9 -1 16 -1 15 -1 0 -7 -3 -14 -6z"/>
<path d="M2630 2330 c0 -5 5 -10 10 -10 6 0 10 5 10 10 0 6 -4 10 -10 10 -5 0
-10 -4 -10 -10z"/>
<path d="M2281 1682 c67 -42 69 -44 69 -37 0 8 -91 65 -104 65 -5 0 10 -13 35
-28z"/>
<path d="M2690 1680 c-13 -9 -13 -10 0 -10 8 0 22 5 30 10 13 9 13 10 0 10 -8
0 -22 -5 -30 -10z"/>
<path d="M2609 1629 l-24 -20 28 17 c15 9 27 18 27 20 0 8 -8 4 -31 -17z"/>
<path d="M2418 1273 c34 -2 90 -2 125 0 34 2 6 3 -63 3 -69 0 -97 -1 -62 -3z"/>
<path d="M2693 1245 c0 -22 2 -30 4 -17 2 12 2 30 0 40 -3 9 -5 -1 -4 -23z"/>
<path d="M2398 1233 c-2 -16 -1 -41 2 -58 l6 -30 7 34 c10 46 9 81 -2 81 -5 0
-10 -12 -13 -27z"/>
<path d="M2563 1205 c0 -27 2 -38 4 -22 2 15 2 37 0 50 -2 12 -4 0 -4 -28z"/>
<path d="M2613 1205 c0 -22 2 -30 4 -17 2 12 2 30 0 40 -3 9 -5 -1 -4 -23z"/>
<path d="M2710 735 c-15 -19 -13 -21 23 -30 26 -7 28 -5 25 16 -4 28 -30 36
-48 14z"/>
<path d="M1815 4660 c3 -5 8 -10 11 -10 2 0 4 5 4 10 0 6 -5 10 -11 10 -5 0
-7 -4 -4 -10z"/>
<path d="M1720 4576 c0 -7 7 -13 15 -13 8 0 15 4 15 8 0 4 -7 9 -15 13 -9 3
-15 0 -15 -8z"/>
<path d="M1679 4573 c-1 -1 -2 -9 -3 -15 -1 -7 -7 -12 -13 -11 -16 3 -33 -21
-25 -34 5 -8 13 -9 22 -3 13 8 12 10 -3 10 -10 0 -16 4 -12 9 3 5 16 8 30 5
13 -2 26 0 30 6 4 6 -1 7 -12 3 -17 -6 -17 -5 0 14 14 16 15 20 2 20 -8 0 -16
-2 -16 -4z"/>
<path d="M1600 2002 c0 -5 14 -7 30 -4 17 2 30 6 30 8 0 2 -13 4 -30 4 -16 0
-30 -4 -30 -8z"/>
<path d="M1000 1990 l-45 -7 40 -1 c22 0 58 3 80 7 l40 9 -35 -1 c-19 0 -55
-3 -80 -7z"/>
<path d="M868 1973 c6 -2 18 -2 25 0 6 3 1 5 -13 5 -14 0 -19 -2 -12 -5z"/>
<path d="M668 1953 c6 -2 18 -2 25 0 6 3 1 5 -13 5 -14 0 -19 -2 -12 -5z"/>
<path d="M1657 1896 c-17 -13 -17 -14 1 -18 12 -4 18 1 19 13 2 22 3 22 -20 5z"/>
<path d="M1731 1894 c0 -11 3 -14 6 -6 3 7 2 16 -1 19 -3 4 -6 -2 -5 -13z"/>
<path d="M1604 1885 c1 -8 5 -18 9 -21 4 -4 7 -16 7 -26 0 -10 5 -18 10 -18 6
0 10 4 10 9 0 5 3 16 6 25 4 11 1 16 -11 16 -9 0 -14 4 -11 9 3 5 0 11 -8 14
-8 3 -13 0 -12 -8z"/>
<path d="M1555 1860 c-3 -5 -1 -10 4 -10 6 0 11 5 11 10 0 6 -2 10 -4 10 -3 0
-8 -4 -11 -10z"/>
<path d="M1706 1855 c-3 -9 -10 -13 -16 -10 -5 3 -10 2 -10 -4 0 -19 20 -22
36 -6 11 11 13 20 7 26 -7 7 -12 5 -17 -6z"/>
<path d="M1750 1845 c-8 -9 -8 -15 -2 -15 12 0 26 19 19 26 -2 2 -10 -2 -17
-11z"/>
<path d="M1609 1803 c0 -5 -2 -18 -3 -30 -1 -12 1 -20 4 -18 8 5 11 55 4 55
-2 0 -4 -3 -5 -7z"/>
<path d="M1698 1779 c-24 -18 -26 -22 -14 -35 17 -17 36 -18 36 -3 0 5 -4 8
-9 4 -5 -3 -12 -2 -15 3 -5 9 21 36 45 45 11 4 11 6 -1 6 -8 0 -27 -9 -42 -20z"/>
<path d="M1541 1764 c0 -11 3 -14 6 -6 3 7 2 16 -1 19 -3 4 -6 -2 -5 -13z"/>
<path d="M1770 1775 c0 -5 5 -17 10 -25 5 -8 10 -10 10 -5 0 6 -5 17 -10 25
-5 8 -10 11 -10 5z"/>
<path d="M1645 1760 c-3 -5 -1 -10 4 -10 6 0 11 5 11 10 0 6 -2 10 -4 10 -3 0
-8 -4 -11 -10z"/>
<path d="M1792 1710 c0 -14 2 -19 5 -12 2 6 2 18 0 25 -3 6 -5 1 -5 -13z"/>
<path d="M1284 1703 l-69 -12 85 5 c47 3 89 9 93 13 11 11 -20 9 -109 -6z"/>
<path d="M1745 1701 c-3 -5 -2 -12 3 -15 5 -3 9 1 9 9 0 17 -3 19 -12 6z"/>
<path d="M1035 1680 l-40 -7 45 -1 c25 0 65 3 90 7 l45 8 -50 0 c-27 0 -68 -3
-90 -7z"/>
<path d="M830 1660 l-35 -7 35 -1 c19 -1 53 3 75 7 l40 9 -40 0 c-22 -1 -56
-4 -75 -8z"/>
<path d="M1794 1636 c-3 -21 -4 -39 -1 -42 2 -3 8 11 11 32 4 20 5 38 2 41 -2
3 -8 -11 -12 -31z"/>
<path d="M615 1640 l-40 -7 35 -1 c19 0 58 3 85 8 l50 7 -45 0 c-25 0 -63 -3
-85 -7z"/>
<path d="M395 1620 l-40 -7 35 -1 c19 0 55 3 80 7 l45 8 -40 0 c-22 0 -58 -3
-80 -7z"/>
<path d="M1705 1620 c-3 -5 3 -10 14 -10 11 0 23 5 26 10 3 6 -3 10 -14 10
-11 0 -23 -4 -26 -10z"/>
<path d="M1766 1617 c3 -10 9 -15 12 -12 3 3 0 11 -7 18 -10 9 -11 8 -5 -6z"/>
<path d="M1811 1604 c0 -11 3 -14 6 -6 3 7 2 16 -1 19 -3 4 -6 -2 -5 -13z"/>
<path d="M200 1602 c0 -4 18 -6 40 -4 22 2 40 6 40 8 0 2 -18 4 -40 4 -22 0
-40 -3 -40 -8z"/>
<path d="M1578 1593 c7 -3 16 -2 19 1 4 3 -2 6 -13 5 -11 0 -14 -3 -6 -6z"/>
<path d="M1728 1563 c7 -3 16 -2 19 1 4 3 -2 6 -13 5 -11 0 -14 -3 -6 -6z"/>
<path d="M1800 1535 c-6 -19 -9 -41 -7 -48 3 -6 6 -3 6 8 1 11 8 32 15 48 8
15 11 27 6 27 -5 0 -14 -16 -20 -35z"/>
<path d="M1825 1520 c3 -5 8 -10 11 -10 2 0 4 5 4 10 0 6 -5 10 -11 10 -5 0
-7 -4 -4 -10z"/>
<path d="M1771 1504 c0 -11 3 -14 6 -6 3 7 2 16 -1 19 -3 4 -6 -2 -5 -13z"/>
<path d="M1752 1480 c0 -14 2 -19 5 -12 2 6 2 18 0 25 -3 6 -5 1 -5 -13z"/>
<path d="M1750 1343 c0 -6 -3 -20 -6 -30 -4 -14 -4 -15 4 -4 6 8 20 12 36 9
21 -4 24 -3 15 8 -6 8 -16 11 -21 8 -6 -4 -14 0 -19 7 -5 9 -9 10 -9 2z"/>
<path d="M1839 1263 c-13 -15 -12 -15 9 -4 23 12 28 21 13 21 -5 0 -15 -7 -22
-17z"/>
<path d="M1872 1244 c9 -3 19 -13 22 -22 3 -12 4 -12 3 3 -1 12 -10 21 -22 22
-15 1 -15 0 -3 -3z"/>
<path d="M1770 1190 c0 -5 5 -10 10 -10 6 0 10 5 10 10 0 6 -4 10 -10 10 -5 0
-10 -4 -10 -10z"/>
<path d="M1891 1175 c0 -5 6 -21 14 -35 8 -14 14 -20 14 -15 0 6 -6 21 -14 35
-8 14 -14 21 -14 15z"/>
<path d="M1815 1130 c3 -5 8 -10 11 -10 2 0 4 5 4 10 0 6 -5 10 -11 10 -5 0
-7 -4 -4 -10z"/>
<path d="M1875 1120 c-4 -12 -5 -24 -2 -27 3 -2 8 5 12 17 4 12 5 24 2 27 -3
2 -8 -5 -12 -17z"/>
<path d="M1917 1053 c-4 -3 -7 -13 -7 -22 0 -14 2 -14 11 -1 9 12 10 11 6 -7
-3 -13 -1 -25 3 -28 4 -3 7 8 6 25 -2 32 -9 44 -19 33z"/>
<path d="M1937 937 c-3 -8 1 -14 9 -14 8 0 14 6 14 14 0 7 -4 13 -9 13 -5 0
-11 -6 -14 -13z"/>
<path d="M1954 876 c4 -11 0 -24 -11 -33 -16 -13 -16 -13 5 -3 25 12 26 18 11
40 -9 12 -10 12 -5 -4z"/>
<path d="M1977 766 c-4 -10 -5 -21 -2 -24 9 -9 17 6 13 25 -3 17 -4 17 -11 -1z"/>
<path d="M2000 655 c0 -14 4 -25 9 -25 4 0 6 11 3 25 -2 14 -6 25 -8 25 -2 0
-4 -11 -4 -25z"/>
<path d="M1996 598 c3 -5 10 -6 15 -3 13 9 11 12 -6 12 -8 0 -12 -4 -9 -9z"/>
<path d="M1940 570 c0 -5 5 -10 10 -10 6 0 10 5 10 10 0 6 -4 10 -10 10 -5 0
-10 -4 -10 -10z"/>
<path d="M2016 555 c-9 -26 -7 -32 5 -12 6 10 9 21 6 23 -2 3 -7 -2 -11 -11z"/>
<path d="M2022 497 c-7 -8 -7 -17 2 -30 16 -21 26 -22 26 -1 0 9 -5 12 -12 8
-8 -5 -9 0 -6 14 7 25 5 27 -10 9z"/>
<path d="M1950 423 c0 -19 21 -27 33 -13 9 10 9 11 -2 5 -8 -4 -17 -2 -22 6
-6 9 -9 10 -9 2z"/>
<path d="M2040 390 c0 -31 -1 -34 -12 -48 -8 -9 -8 -16 -1 -23 8 -8 13 -2 18
20 4 17 11 29 16 25 5 -3 9 0 9 5 0 6 -5 11 -11 11 -6 0 -9 7 -5 15 3 8 1 15
-4 15 -6 0 -10 -9 -10 -20z"/>
<path d="M1981 385 c0 -5 3 -16 8 -23 7 -11 9 -10 14 3 4 9 3 14 -2 10 -5 -3
-12 1 -14 7 -3 7 -6 9 -6 3z"/>
<path d="M1882 213 c-29 -15 -67 -40 -85 -56 l-32 -28 47 30 c25 17 68 42 95
56 26 13 43 25 38 25 -6 0 -34 -12 -63 -27z"/>
<path d="M1985 94 l-40 -14 35 5 c19 3 78 8 130 11 92 6 98 5 173 -26 42 -18
77 -37 77 -41 0 -5 12 -9 28 -8 21 0 11 8 -48 36 -41 19 -83 39 -92 44 -27 14
-217 9 -263 -7z"/>
</g>
</svg>
